<svg id="Calque_1" data-name="Calque 1" xmlns="http://www.w3.org/2000/svg" viewBox="0 0 91.1 98.88"><defs><style>.cls-1{fill:#007398;}.cls-2{fill:#fff;}.cls-3{fill:#0e0f0e;}</style></defs><title>cat_poisson</title><path class="cls-1" d="M466.89,328.33c-1-3-9.08-2.15-12.19-1.69a43.64,43.64,0,0,0,1.64-14.79c-1-19.64-17-35.81-29.93-39.07.77-2.71,3.83-13.68,3.33-14.88-.83-2-2.4-1.55-2.4-1.55s-1.14-3.22-2.83-3.69-3.1,1.5-3.1,1.5-3.88-6.76-6.32-1.34c-2.27,5.06,2.08,18.13,2.67,19.86-13,3-29.29,19.34-30.31,39.17a43.64,43.64,0,0,0,1.64,14.79c-3.11-.46-11.18-1.35-12.19,1.69-2.4,7.19,3.65,13.31,7.36,15.75s8.8-7.41,9.21-8.18c5.89,8.6,15.77,13.68,28.43,13.68s22.54-5.08,28.43-13.68c.41.77,5.64,10.53,9.21,8.18S469.29,335.52,466.89,328.33Z" transform="translate(-376.34 -250.71)"/><ellipse class="cls-2" cx="60.95" cy="52.8" rx="8.24" ry="9.29"/><circle class="cls-3" cx="435.26" cy="306.92" r="5.03" transform="translate(-287.34 460.88) rotate(-84.64)"/><ellipse class="cls-2" cx="30.15" cy="52.8" rx="8.24" ry="9.29"/><circle class="cls-3" cx="408.51" cy="306.92" r="5.03" transform="translate(-403.23 -211.19) rotate(-5.36)"/></svg>