<svg id="Calque_1" data-name="Calque 1" xmlns="http://www.w3.org/2000/svg" viewBox="0 0 69.61 99.16"><defs><style>.cls-1{fill:#ef8018;}.cls-2{fill:#fff;}.cls-3{fill:#0e0f0e;}</style></defs><title>cat_lapin</title><path class="cls-1" d="M385.87,322.92a17.25,17.25,0,0,0,.29,2.31c.71,4.46,9.18,23.49,35.22,22.75,24.73-.7,29.86-21.59,29.86-21.59a20.06,20.06,0,0,0,.24-6.8c-1-7.12-4.92-14.15-9.83-19.4a60,60,0,0,0,12.16-20.94c4.57-13.81-1.57-29.15-5.09-29.94s-12,1.84-17.88,17.55c-3.69,9.93-3,17.75-2.35,24.54a27.83,27.83,0,0,0-12.79-1.44,24.21,24.21,0,0,0-4.11.76c.77-5.22,2-11.43.23-21.23-2.52-14.33-13.49-21.26-17-20.61s-9,1.77-8.26,18.51c.68,14.44,8.89,28,11.11,31.39C390.42,305.41,385.46,314.7,385.87,322.92Z" transform="translate(-385.85 -248.84)"/><path class="cls-2" d="M404.25,309.67c3.33.14,6,4.22,4.71,9.25-1.1,4.33-3.8,6.09-6.55,5.74-3.31-.42-5.78-5.34-4-10.34S404.25,309.67,404.25,309.67Z" transform="translate(-385.85 -248.84)"/><path class="cls-2" d="M434.36,309.72c-3.32.3-5.71,4.87-4.22,9.84,1,3.3,4,5.52,6.77,5,3.28-.57,5.52-5.61,3.49-10.51S434.36,309.72,434.36,309.72Z" transform="translate(-385.85 -248.84)"/><circle class="cls-3" cx="405.54" cy="318.67" r="3.5" transform="translate(-413.86 -209.54) rotate(-5.36)"/><circle class="cls-3" cx="433.53" cy="318.69" r="3.59" transform="translate(-413.74 -206.93) rotate(-5.36)"/><path class="cls-2" d="M424.5,329.86a1.14,1.14,0,0,0-1-.57l-8.84,0a1,1,0,0,0-.8,1.65c.09.12,2.23,3.71,5.12,3.63h.05c2.8-.11,5.07-3.26,5.33-3.58A1,1,0,0,0,424.5,329.86Z" transform="translate(-385.85 -248.84)"/><path class="cls-2" d="M407.5,292.16c-2-29.85-11-28.55-11-28.55-6.79,11.4,4.76,30,5.88,31.42A27.73,27.73,0,0,1,407.5,292.16Z" transform="translate(-385.85 -248.84)"/><path class="cls-2" d="M438.81,297.45c14.25-21.21,7.61-33.38,7.61-33.38-11.61,2.39-13.74,23.89-13.91,29.11A29.41,29.41,0,0,1,438.81,297.45Z" transform="translate(-385.85 -248.84)"/></svg>