<svg id="Calque_1" data-name="Calque 1" xmlns="http://www.w3.org/2000/svg" viewBox="0 0 79.91 99.21"><defs><style>.cls-1{fill:#ba3600;}.cls-2{fill:#fff;}</style></defs><title>cat_cheval</title><path class="cls-1" d="M461.52,248.79c-9.87,3.29-16.66,10.64-20.17,15.29-5.18-3.68-12.14-5.23-19.59-5.23s-14.6,1.6-19.8,5.4c-3.47-4.64-10.32-12.12-20.3-15.45,0,0-1.18,18.7,12.74,26.11-3.51,10.3,1,16,2.55,24.63,1.64,9.27-1.34,21.19,0,31.55,1.29,10,9.43,16.92,24.82,16.92s23.54-6.93,24.82-16.92c1.33-10.37-1.65-22.29,0-31.55,1.53-8.68,6.12-14.38,2.5-24.79C462.68,267.22,461.52,248.79,461.52,248.79Z" transform="translate(-381.64 -248.79)"/><path class="cls-2" d="M425.57,264.39a15.48,15.48,0,0,0,1.76,12.1c-3.78-.51-5.84-4.26-5.84-4.26-1.63,3.49.49,8.91.49,8.91-10.07-6.42-6-16.8-6-16.8s.83-2.45,4.25-2.45C422.44,261.88,425.08,262.66,425.57,264.39Z" transform="translate(-381.64 -248.79)"/><path class="cls-2" d="M421.85,343.52c-7.31,0-16.93-.94-19.42-11.12-1.55-6.37,13.69-6.11,16.71-11.57,2.24-4,.11-26.55.11-26.24h5.19c0-.31-2.13,22.19.11,26.24,3,5.46,18.55,4.92,17,11.29C439.06,342.3,429.16,343.52,421.85,343.52Z" transform="translate(-381.64 -248.79)"/><circle class="cls-1" cx="32.99" cy="85.01" r="3.37"/><circle class="cls-1" cx="48.18" cy="85.01" r="3.37"/><path class="cls-2" d="M429,291.61c-.81,4.82,1.68,9.61,5.16,9.79s6.38-3.47,7.16-8.45-.61-9.77-4.91-10.19C432.91,282.42,429.8,286.64,429,291.61Z" transform="translate(-381.64 -248.79)"/><ellipse cx="432.82" cy="294.68" rx="4.59" ry="4" transform="translate(-316.1 419.08) rotate(-79.71)"/><path class="cls-2" d="M414.73,291.61c.81,4.82-1.68,9.61-5.16,9.79s-6.38-3.47-7.16-8.45.61-9.77,4.91-10.19C410.79,282.42,413.91,286.64,414.73,291.61Z" transform="translate(-381.64 -248.79)"/><ellipse cx="410.88" cy="294.68" rx="4" ry="4.59" transform="translate(-427.68 -170.61) rotate(-10.29)"/></svg>