<svg id="Calque_1" data-name="Calque 1" xmlns="http://www.w3.org/2000/svg" viewBox="0 0 99.26 73.97"><defs><style>.cls-1{fill:#b40e7d;}.cls-2{fill:#fff;}.cls-3{fill:#0e0f0e;}</style></defs><title>cat_chat</title><path class="cls-1" d="M386.86,292.93c-.62,2.25-3.17,6.36-3.17,14.88a24.66,24.66,0,0,0,.55,5.69l-11.65-.11,0,2,12.21.12a23.76,23.76,0,0,0,1.65,3.92l-14.13,2.73.38,2,14.84-2.87a21,21,0,0,0,2.44,3L381,329l.93,1.8,9.66-5a30.85,30.85,0,0,0,14.62,6.83,74.18,74.18,0,0,0,33.24-.76,38.71,38.71,0,0,0,12.42-6.09l9.48,5.6,1-1.74-8.84-5.22a26.44,26.44,0,0,0,2.74-2.8l14.62,3.7.5-2-13.78-3.49a24.81,24.81,0,0,0,2.22-3.84l11.68.55.09-2-11-.52A26.47,26.47,0,0,0,462,303c-.32-4.58-2-7.94-2.1-8.7,5.57-5.45,6.33-15.35,6.42-21.41a83.27,83.27,0,0,1,.61-11,29.35,29.35,0,0,0-13.5,2.51,30.48,30.48,0,0,0-11.67,10.28,53.34,53.34,0,0,0-18-3.3c-6.57-.08-14.14.65-18.61,2.72-1.14-2.43-3-4.9-7.06-7.92-6.48-4.82-18.85-6-18.85-6s1.31,9.46,1.82,18.83A22.38,22.38,0,0,0,386.86,292.93Z" transform="translate(-372.31 -260.12)"/><ellipse class="cls-2" cx="402.82" cy="302.84" rx="6.59" ry="10.43" transform="translate(-401.62 -216.58) rotate(-5.97)"/><ellipse class="cls-2" cx="441.81" cy="301.59" rx="6.83" ry="10.82" transform="translate(-383.22 -243.48) rotate(-2.13)"/><path class="cls-2" d="M427.72,313.83a.86.86,0,0,0-.8-.45h-8.64a.86.86,0,0,0-.63,1.39c1,1.21,3.08,4,4.74,4.16h.24c1.63-.1,4.06-2.85,5-4.2A.86.86,0,0,0,427.72,313.83Z" transform="translate(-372.31 -260.12)"/><ellipse class="cls-3" cx="405.1" cy="305.39" rx="4.94" ry="4.39" transform="translate(-278.68 445.72) rotate(-89.14)"/><ellipse class="cls-3" cx="440.13" cy="304.84" rx="5.2" ry="4.63" transform="translate(-243.63 480.2) rotate(-89.14)"/><path class="cls-2" d="M398.49,277.56a17.59,17.59,0,0,0-3.19-4.49c-2.71-2.6-7.83-4.34-7.83-4.34a87,87,0,0,0,.63,8.89c.39,2.58,2.21,6,3.13,7.55A29.08,29.08,0,0,1,398.49,277.56Z" transform="translate(-372.31 -260.12)"/><path class="cls-2" d="M456.23,286.3a17.65,17.65,0,0,0,3.23-5.7c1.71-4.79,0-11.57,0-11.57a15.64,15.64,0,0,0-5.81,3,26.09,26.09,0,0,0-5.12,6.18A28.68,28.68,0,0,1,456.23,286.3Z" transform="translate(-372.31 -260.12)"/></svg>