<svg id="Calque_1" data-name="Calque 1" xmlns="http://www.w3.org/2000/svg" viewBox="0 0 78.63 99.26"><defs><style>.cls-1{fill:#ffc900;}.cls-2{fill:#fff;}.cls-3{fill:#0e0f0e;}</style></defs><title>cat_poule</title><path class="cls-1" d="M432.47,279.55a11.4,11.4,0,0,0,5.33-9.9c0-11.06-3.43-20-7.67-20-3.54,0-6.51,6.27-7.39,14.79a54.54,54.54,0,0,0-3.9-4.33c-7.82-7.82-16.41-11.91-19.19-9.14-2.36,2.36.25,8.92,5.89,15.63l-.4-.07c-11.39-1.68-21.11.26-21.72,4.34s8.14,8.76,19.53,10.44c1.21.18,2.48.35,3.78.51-12.51,7.8-24.39,23.2-24.39,37.08,0,20.31,17.6,30,39.32,30s39.32-9.69,39.32-30C461,303.5,446.28,286.24,432.47,279.55Z" transform="translate(-382.36 -249.61)"/><path class="cls-2" d="M422.26,340.61l8.38-18s-1.28-2.28-8.38-2.28-8.38,2.28-8.38,2.28Z" transform="translate(-382.36 -249.61)"/><circle class="cls-2" cx="23.44" cy="57.81" r="8.46"/><circle class="cls-3" cx="406.37" cy="311.37" r="4.52" transform="translate(-409.68 -210.27) rotate(-5.36)"/><circle class="cls-2" cx="56.96" cy="57.81" r="8.46"/><circle class="cls-3" cx="438.75" cy="311.37" r="4.52" transform="translate(-294.62 469.48) rotate(-84.64)"/></svg>