<svg id="Calque_1" data-name="Calque 1" xmlns="http://www.w3.org/2000/svg" viewBox="0 0 99.21 78.99"><defs><style>.cls-1{fill:#00a0ae;}.cls-2{fill:#fff;}.cls-3{fill:#0e0f0e;}</style></defs><title>chien</title><path class="cls-1" d="M376.36,323.37a101.35,101.35,0,0,1-1.41,13.7s8.22-2.84,12.71-9.67,5.57-22.79,5.87-26.67c.43,2.17,2.34,14,2.65,15.65.71,3.68,1.65,9,3.48,11a12.3,12.3,0,0,0,3.83,2.49s18.16,10,36.64.42c3.25-1.69,4.59-2.94,5.25-3.86,1.39-1.93,2.67-7.79,2.87-13.7s3.85-14.71,3.85-14.71-.35,3.61-.56,6.7a31.77,31.77,0,0,0,5,19.73c3.9,6,12.48,9.95,12.48,9.95a31.31,31.31,0,0,1-1.41-5.6c-.46-3.23-1.92-7.1,1-14.85a38.63,38.63,0,0,0,2.66-14c0-2.55-1.29-8.63-6.86-16.07C459,276.73,453,274.36,453,274.36s-1.29-4.45-7.14-9.13c-5.59-4.47-16.48-7.59-26.46-7.11C408.37,258.64,397.69,263,394,269s-3.78,7.06-4.75,7.9-5.6,7-10.08,11.09-7.92,8.78-7,13.42S376.78,314.61,376.36,323.37Z" transform="translate(-372.04 -258.07)"/><path class="cls-2" d="M412.21,299.3c.46,4.58-2.17,8.91-5.45,8.86s-5.77-3.65-6.19-8.37,1.18-9.13,5.24-9.25C409.08,290.43,411.74,294.59,412.21,299.3Z" transform="translate(-372.04 -258.07)"/><ellipse class="cls-3" cx="408.5" cy="300.45" rx="4.31" ry="3.76" transform="translate(-310.59 412.11) rotate(-83.15)"/><path class="cls-2" d="M432.11,298.8c-.49,4.57,2.11,8.92,5.38,8.9s5.79-3.61,6.25-8.33-1.11-9.14-5.17-9.29C435.3,290,432.61,294.09,432.11,298.8Z" transform="translate(-372.04 -258.07)"/><ellipse class="cls-3" cx="435.71" cy="300.42" rx="4.31" ry="3.76" transform="translate(-317.97 409.01) rotate(-78.44)"/><path class="cls-2" d="M405.59,324.29s4.09,3.65,13.54,4.41c-2.35-1.75-3.25-6-3.25-6,3.54-3,13.29-2.11,14-.5.43,1-1.37,4.8-3.59,6.62,9.64-.61,13.87-4.31,13.87-4.31-1.91-4.11-5.64-6.9-9.81-11.45-5.48-6-4.43-16.18-3.5-29.69a80,80,0,0,1,3.76-18.8,32.48,32.48,0,0,0-10.19-1.4c-5.64.15-8.57,1.7-8.57,1.7a26.28,26.28,0,0,0,1.25,7.36,96,96,0,0,1,3.7,24.74c.15,8.23,0,14.62-3.43,18.14A55.58,55.58,0,0,0,405.59,324.29Z" transform="translate(-372.04 -258.07)"/></svg>